<mxfile host="app.diagrams.net" agent="Mozilla/5.0 (Macintosh; Intel Mac OS X 10_15_7) AppleWebKit/537.36 (KHTML, like Gecko) Chrome/131.0.0.0 Safari/537.36" version="24.9.2">
  <diagram name="ページ1" id="QBZ6evs0sExyXyuvnBCU">
    <mxGraphModel dx="1194" dy="721" grid="1" gridSize="10" guides="1" tooltips="1" connect="1" arrows="1" fold="1" page="1" pageScale="1" pageWidth="827" pageHeight="1169" math="0" shadow="0">
      <root>
        <mxCell id="0" />
        <mxCell id="1" parent="0" />
        <mxCell id="GoMqncTZ-PiKzAd3sMFr-16" value="" style="rounded=1;whiteSpace=wrap;html=1;dashed=1;" vertex="1" parent="1">
          <mxGeometry x="570" y="205" width="110" height="140" as="geometry" />
        </mxCell>
        <mxCell id="GoMqncTZ-PiKzAd3sMFr-31" style="edgeStyle=orthogonalEdgeStyle;rounded=0;orthogonalLoop=1;jettySize=auto;html=1;entryX=0;entryY=0.25;entryDx=0;entryDy=0;" edge="1" parent="1" source="GoMqncTZ-PiKzAd3sMFr-1" target="GoMqncTZ-PiKzAd3sMFr-20">
          <mxGeometry relative="1" as="geometry">
            <mxPoint x="440" y="379" as="targetPoint" />
            <Array as="points">
              <mxPoint x="330" y="393" />
            </Array>
          </mxGeometry>
        </mxCell>
        <mxCell id="GoMqncTZ-PiKzAd3sMFr-41" style="edgeStyle=orthogonalEdgeStyle;rounded=0;orthogonalLoop=1;jettySize=auto;html=1;entryX=1;entryY=0.5;entryDx=0;entryDy=0;" edge="1" parent="1" source="GoMqncTZ-PiKzAd3sMFr-1" target="GoMqncTZ-PiKzAd3sMFr-40">
          <mxGeometry relative="1" as="geometry">
            <Array as="points">
              <mxPoint x="245" y="470" />
            </Array>
          </mxGeometry>
        </mxCell>
        <mxCell id="GoMqncTZ-PiKzAd3sMFr-1" value="admin" style="rounded=1;whiteSpace=wrap;html=1;" vertex="1" parent="1">
          <mxGeometry x="200" y="380" width="90" height="50" as="geometry" />
        </mxCell>
        <mxCell id="GoMqncTZ-PiKzAd3sMFr-2" value="" style="rounded=1;whiteSpace=wrap;html=1;" vertex="1" parent="1">
          <mxGeometry x="390" y="230" width="90" height="50" as="geometry" />
        </mxCell>
        <mxCell id="GoMqncTZ-PiKzAd3sMFr-3" value="" style="rounded=1;whiteSpace=wrap;html=1;" vertex="1" parent="1">
          <mxGeometry x="400" y="240" width="90" height="50" as="geometry" />
        </mxCell>
        <mxCell id="GoMqncTZ-PiKzAd3sMFr-21" style="edgeStyle=orthogonalEdgeStyle;rounded=0;orthogonalLoop=1;jettySize=auto;html=1;entryX=0.5;entryY=0;entryDx=0;entryDy=0;" edge="1" parent="1" source="GoMqncTZ-PiKzAd3sMFr-4" target="GoMqncTZ-PiKzAd3sMFr-20">
          <mxGeometry relative="1" as="geometry" />
        </mxCell>
        <mxCell id="GoMqncTZ-PiKzAd3sMFr-28" style="edgeStyle=orthogonalEdgeStyle;rounded=0;orthogonalLoop=1;jettySize=auto;html=1;entryX=0.5;entryY=1;entryDx=0;entryDy=0;dashed=1;" edge="1" parent="1" source="GoMqncTZ-PiKzAd3sMFr-4" target="GoMqncTZ-PiKzAd3sMFr-27">
          <mxGeometry relative="1" as="geometry" />
        </mxCell>
        <mxCell id="GoMqncTZ-PiKzAd3sMFr-4" value="participants" style="rounded=1;whiteSpace=wrap;html=1;" vertex="1" parent="1">
          <mxGeometry x="410" y="250" width="90" height="50" as="geometry" />
        </mxCell>
        <mxCell id="GoMqncTZ-PiKzAd3sMFr-10" value="Tools" style="text;html=1;align=center;verticalAlign=middle;whiteSpace=wrap;rounded=0;" vertex="1" parent="1">
          <mxGeometry x="595" y="215" width="60" height="30" as="geometry" />
        </mxCell>
        <mxCell id="GoMqncTZ-PiKzAd3sMFr-12" value="think" style="rounded=0;whiteSpace=wrap;html=1;" vertex="1" parent="1">
          <mxGeometry x="585" y="255" width="80" height="30" as="geometry" />
        </mxCell>
        <mxCell id="GoMqncTZ-PiKzAd3sMFr-14" value="search" style="rounded=0;whiteSpace=wrap;html=1;" vertex="1" parent="1">
          <mxGeometry x="585" y="295" width="80" height="30" as="geometry" />
        </mxCell>
        <mxCell id="GoMqncTZ-PiKzAd3sMFr-18" value="" style="curved=1;endArrow=classic;html=1;rounded=0;dashed=1;" edge="1" parent="1">
          <mxGeometry width="50" height="50" relative="1" as="geometry">
            <mxPoint x="505" y="265" as="sourcePoint" />
            <mxPoint x="565" y="265" as="targetPoint" />
            <Array as="points">
              <mxPoint x="515" y="255" />
              <mxPoint x="545" y="245" />
            </Array>
          </mxGeometry>
        </mxCell>
        <mxCell id="GoMqncTZ-PiKzAd3sMFr-19" value="" style="curved=1;endArrow=classic;html=1;rounded=0;dashed=1;" edge="1" parent="1">
          <mxGeometry width="50" height="50" relative="1" as="geometry">
            <mxPoint x="565" y="282" as="sourcePoint" />
            <mxPoint x="505" y="282" as="targetPoint" />
            <Array as="points">
              <mxPoint x="545" y="302" />
              <mxPoint x="515" y="292" />
            </Array>
          </mxGeometry>
        </mxCell>
        <mxCell id="GoMqncTZ-PiKzAd3sMFr-24" style="edgeStyle=orthogonalEdgeStyle;rounded=0;orthogonalLoop=1;jettySize=auto;html=1;entryX=0.5;entryY=0;entryDx=0;entryDy=0;dashed=1;" edge="1" parent="1" source="GoMqncTZ-PiKzAd3sMFr-20" target="GoMqncTZ-PiKzAd3sMFr-23">
          <mxGeometry relative="1" as="geometry" />
        </mxCell>
        <mxCell id="GoMqncTZ-PiKzAd3sMFr-26" style="edgeStyle=orthogonalEdgeStyle;rounded=0;orthogonalLoop=1;jettySize=auto;html=1;entryX=1;entryY=0.5;entryDx=0;entryDy=0;" edge="1" parent="1" source="GoMqncTZ-PiKzAd3sMFr-20" target="GoMqncTZ-PiKzAd3sMFr-1">
          <mxGeometry relative="1" as="geometry">
            <Array as="points" />
          </mxGeometry>
        </mxCell>
        <mxCell id="GoMqncTZ-PiKzAd3sMFr-33" style="edgeStyle=orthogonalEdgeStyle;rounded=0;orthogonalLoop=1;jettySize=auto;html=1;entryX=0.25;entryY=1;entryDx=0;entryDy=0;exitX=0.25;exitY=0;exitDx=0;exitDy=0;" edge="1" parent="1" source="GoMqncTZ-PiKzAd3sMFr-20" target="GoMqncTZ-PiKzAd3sMFr-4">
          <mxGeometry relative="1" as="geometry" />
        </mxCell>
        <mxCell id="GoMqncTZ-PiKzAd3sMFr-20" value="judge" style="rounded=1;whiteSpace=wrap;html=1;" vertex="1" parent="1">
          <mxGeometry x="410" y="380" width="90" height="50" as="geometry" />
        </mxCell>
        <mxCell id="GoMqncTZ-PiKzAd3sMFr-22" value="action" style="text;html=1;align=center;verticalAlign=middle;whiteSpace=wrap;rounded=0;" vertex="1" parent="1">
          <mxGeometry x="460" y="325" width="40" height="30" as="geometry" />
        </mxCell>
        <mxCell id="GoMqncTZ-PiKzAd3sMFr-23" value="state" style="whiteSpace=wrap;html=1;shape=cylinder3;boundedLbl=1;backgroundOutline=1;size=12;" vertex="1" parent="1">
          <mxGeometry x="417.5" y="480" width="75" height="55" as="geometry" />
        </mxCell>
        <mxCell id="GoMqncTZ-PiKzAd3sMFr-27" value="memory" style="whiteSpace=wrap;html=1;shape=cylinder3;boundedLbl=1;backgroundOutline=1;size=11;" vertex="1" parent="1">
          <mxGeometry x="417.5" y="110" width="75" height="55" as="geometry" />
        </mxCell>
        <mxCell id="GoMqncTZ-PiKzAd3sMFr-32" value="action" style="text;html=1;align=center;verticalAlign=middle;whiteSpace=wrap;rounded=0;" vertex="1" parent="1">
          <mxGeometry x="334" y="361" width="40" height="30" as="geometry" />
        </mxCell>
        <mxCell id="GoMqncTZ-PiKzAd3sMFr-35" value="memory" style="whiteSpace=wrap;html=1;shape=cylinder3;boundedLbl=1;backgroundOutline=1;size=11;" vertex="1" parent="1">
          <mxGeometry x="180" y="270" width="75" height="55" as="geometry" />
        </mxCell>
        <mxCell id="GoMqncTZ-PiKzAd3sMFr-36" style="edgeStyle=orthogonalEdgeStyle;rounded=0;orthogonalLoop=1;jettySize=auto;html=1;entryX=0.5;entryY=1;entryDx=0;entryDy=0;dashed=1;" edge="1" target="GoMqncTZ-PiKzAd3sMFr-35" parent="1">
          <mxGeometry relative="1" as="geometry">
            <mxPoint x="217.5" y="380" as="sourcePoint" />
          </mxGeometry>
        </mxCell>
        <mxCell id="GoMqncTZ-PiKzAd3sMFr-39" style="edgeStyle=orthogonalEdgeStyle;rounded=0;orthogonalLoop=1;jettySize=auto;html=1;entryX=0;entryY=0.5;entryDx=0;entryDy=0;" edge="1" parent="1" source="GoMqncTZ-PiKzAd3sMFr-38" target="GoMqncTZ-PiKzAd3sMFr-1">
          <mxGeometry relative="1" as="geometry" />
        </mxCell>
        <mxCell id="GoMqncTZ-PiKzAd3sMFr-38" value="START" style="rounded=1;whiteSpace=wrap;html=1;arcSize=50;" vertex="1" parent="1">
          <mxGeometry x="30" y="385" width="95" height="40" as="geometry" />
        </mxCell>
        <mxCell id="GoMqncTZ-PiKzAd3sMFr-40" value="END" style="rounded=1;whiteSpace=wrap;html=1;arcSize=50;" vertex="1" parent="1">
          <mxGeometry x="30" y="450" width="95" height="40" as="geometry" />
        </mxCell>
        <mxCell id="GoMqncTZ-PiKzAd3sMFr-42" value="call" style="text;html=1;align=center;verticalAlign=middle;whiteSpace=wrap;rounded=0;" vertex="1" parent="1">
          <mxGeometry x="334" y="407" width="40" height="30" as="geometry" />
        </mxCell>
        <mxCell id="GoMqncTZ-PiKzAd3sMFr-43" value="call" style="text;html=1;align=center;verticalAlign=middle;whiteSpace=wrap;rounded=0;" vertex="1" parent="1">
          <mxGeometry x="396" y="326" width="40" height="30" as="geometry" />
        </mxCell>
        <mxCell id="GoMqncTZ-PiKzAd3sMFr-44" value="" style="curved=1;endArrow=classic;html=1;rounded=0;exitX=1;exitY=0.5;exitDx=0;exitDy=0;entryX=0.75;entryY=1;entryDx=0;entryDy=0;" edge="1" parent="1" source="GoMqncTZ-PiKzAd3sMFr-20" target="GoMqncTZ-PiKzAd3sMFr-20">
          <mxGeometry width="50" height="50" relative="1" as="geometry">
            <mxPoint x="540" y="470" as="sourcePoint" />
            <mxPoint x="590" y="420" as="targetPoint" />
            <Array as="points">
              <mxPoint x="530" y="405" />
              <mxPoint x="530" y="450" />
              <mxPoint x="500" y="450" />
            </Array>
          </mxGeometry>
        </mxCell>
        <mxCell id="GoMqncTZ-PiKzAd3sMFr-45" value="action" style="text;html=1;align=center;verticalAlign=middle;whiteSpace=wrap;rounded=0;" vertex="1" parent="1">
          <mxGeometry x="530" y="420" width="40" height="30" as="geometry" />
        </mxCell>
      </root>
    </mxGraphModel>
  </diagram>
</mxfile>
